<svg xmlns="http://www.w3.org/2000/svg" viewBox="0 0 88 88" width="88" height="88" color="#12233A" role="img" aria-label="Shin: asleep">
  <circle class="face-disc" cx="44" cy="44" r="40.5" fill="#DDF1FA"/>
  <g class="face-body">
  <path d="M32 67 C27 70 22 73 19.2 76 A40.5 40.5 0 0 0 68.8 76 C66 73 61 70 56 67 Z" fill="#2BB5F0" stroke="currentColor" stroke-width="3" stroke-linejoin="round"/>
  <path d="M38.5 70 L41 77 M49.5 70 L47 77" stroke="currentColor" stroke-width="4.6" stroke-linecap="round" fill="none"/>
  <path d="M38.5 70 L41 77 M49.5 70 L47 77" stroke="#F26B1D" stroke-width="2.2" stroke-linecap="round" fill="none"/>
  <rect x="38.5" y="75.5" width="11" height="7" rx="1.5" fill="#FFFFFF" stroke="currentColor" stroke-width="2"/>
  <path d="M40.6 77.5 h1.3 v3 h-1.3 Z M43 77.5 h1.3 v3 h-1.3 Z M45.4 77.5 h1.3 v3 h-1.3 Z" fill="#12233A"/>
</g>
  <g class="face-head" transform="translate(0 3) rotate(4 44 50)">
    <path class="face-skull" d="M44 17 C59 17 68 30 68 46 C68 61 57 70 44 70 C31 70 20 61 20 46 C20 30 29 17 44 17 Z" fill="#2BB5F0" stroke="currentColor" stroke-width="3"/>
    <g class="face-hat">
  <path d="M24 29.5 C26 19 35 14.5 44 14.5 C53 14.5 62 19 64 29.5 C57 27 31 27 24 29.5 Z" fill="#F26B1D" stroke="currentColor" stroke-width="3" stroke-linejoin="round"/>
  <path d="M44 14.5 L44 10.5" stroke="currentColor" stroke-width="3" stroke-linecap="round"/>
  <g transform="rotate(22 44 10.5)">
    <path d="M34.5 9.5 Q44 5.5 53.5 9.5 Q44 13.5 34.5 9.5 Z" fill="#F26B1D" stroke="currentColor" stroke-width="2" stroke-linejoin="round"/>
    <circle cx="44" cy="9.5" r="1.5" fill="#12233A"/>
  </g>
</g>
    <g class="face-brows"><path d="M27 36.5 L39 36.5 M49 36.5 L61 36.5" stroke="currentColor" stroke-width="4.6" stroke-linecap="round" fill="none"/></g>
    <g class="face-eyes"><path d="M26.5 46 Q33.5 52 40.5 46" stroke="currentColor" stroke-width="3.6" stroke-linecap="round" fill="none"/>
    <path d="M47.5 46 Q54.5 52 61.5 46" stroke="currentColor" stroke-width="3.6" stroke-linecap="round" fill="none"/></g>
    <g class="face-mouth"><path d="M41.5 63.5 L46.5 63.5" stroke="currentColor" stroke-width="2.8" stroke-linecap="round" fill="none"/></g>
  </g>
  <g class="face-extras"><path d="M64 21 L71 21 L64 28 L71 28" stroke="currentColor" stroke-width="2.6" stroke-linecap="round" stroke-linejoin="round" fill="none"/></g>
  <circle class="face-ring" cx="44" cy="44" r="40.5" fill="none" stroke="currentColor" stroke-width="3"/>
</svg>
